<svg width="77" height="75" viewBox="0 0 77 75" fill="none" xmlns="http://www.w3.org/2000/svg">
<g id="delivery-man 1" clip-path="url(#clip0_7_6920)" filter="url(#filter0_d_7_6920)">
<g id="Group">
<g id="Group_2">
<path id="Vector" fill-rule="evenodd" clip-rule="evenodd" d="M29.3012 31.1886H22.5015V33.5508C22.5015 34.1348 22.9781 34.6118 23.5617 34.6118H26.0075L27.4665 35.3488L29.3013 34.6118V31.1886H29.3012Z" fill="#FFEF60"/>
</g>
<g id="Group_3">
<path id="Vector_2" fill-rule="evenodd" clip-rule="evenodd" d="M28.2411 27.7609H23.5617C22.9782 27.7609 22.5015 28.2379 22.5015 28.8219V30.5771H29.3013V28.8219C29.3013 28.2379 28.8246 27.7609 28.2411 27.7609Z" fill="#FFEF60"/>
</g>
<g id="Group_4">
<path id="Vector_3" fill-rule="evenodd" clip-rule="evenodd" d="M29.3013 30.0481H22.5015V31.7161H29.3013V30.0481Z" fill="#FF814E"/>
</g>
<g id="Group_5">
<path id="Vector_4" fill-rule="evenodd" clip-rule="evenodd" d="M23.9234 30.048H23.0526H22.5041V28.8218C22.5041 28.4228 22.7272 28.0742 23.0526 27.8938C23.2054 27.8097 23.3795 27.7607 23.5644 27.7607H24.9836C24.4001 27.7607 23.9234 28.2377 23.9234 28.8218V30.048H23.9234Z" fill="#FFCD1B"/>
</g>
<g id="Group_6">
<path id="Vector_5" fill-rule="evenodd" clip-rule="evenodd" d="M23.9182 31.7161H23.0474H22.499V31.1887V30.5771V30.0481H23.0474H23.9182V30.5771V31.1887V31.7161Z" fill="#FF5A17"/>
</g>
<g id="Group_7">
<path id="Vector_6" fill-rule="evenodd" clip-rule="evenodd" d="M23.9234 31.7161V33.5508C23.9234 34.1348 24.4001 34.6118 24.9836 34.6118H23.5644C23.3796 34.6118 23.2054 34.5644 23.0526 34.4804C22.7272 34.2984 22.5042 33.9499 22.5042 33.5508V31.7161H23.0526H23.9234Z" fill="#FFCD1B"/>
</g>
<g id="Group_8">
<path id="Vector_7" fill-rule="evenodd" clip-rule="evenodd" d="M29.3009 34.612H26.0072V36.1271C26.0072 36.491 26.3051 36.7876 26.6672 36.7876H37.3911C37.3911 35.8351 37.3911 35.3504 36.6624 35.3504L35.2111 35.3489C34.2975 35.3474 33.6987 35.1134 33.3642 34.6119H29.3009V34.612Z" fill="#635448"/>
</g>
<g id="Group_9">
<path id="Vector_8" fill-rule="evenodd" clip-rule="evenodd" d="M36.0966 36.7876H26.6662C26.1132 37.7508 25.6686 38.9082 26.0521 41.1221C26.6937 38.9388 33.2109 39.8103 33.88 42.3299H41.0708C41.3427 41.7137 41.5994 41.1052 41.824 40.4906H39.7967C35.6964 38.9433 37.0148 39.6329 36.0966 36.7876Z" fill="#FF8C5E"/>
</g>
<g id="Group_10">
<path id="Vector_9" fill-rule="evenodd" clip-rule="evenodd" d="M36.6774 30.8691C36.5368 31.6091 36.3459 32.3385 36.132 32.9592L34.059 33.7714L31.7476 32.9592C31.8286 28.5849 33.4632 26.4873 34.8534 25.8084C35.3545 25.4269 35.8678 25.2832 35.8678 25.2832C35.8678 25.2832 36.543 26.3634 36.5782 26.3634C36.8378 26.9811 36.9356 27.7869 36.9188 28.6568L36.6774 30.8691Z" fill="#FFFAFA"/>
</g>
<g id="Group_11">
<path id="Vector_10" fill-rule="evenodd" clip-rule="evenodd" d="M31.7477 32.9591H36.1322C37.142 33.0692 38.384 33.8383 38.384 36.2203V38.717L37.389 39.3097L36.0956 38.717V36.7875C36.0956 35.835 36.0956 35.3503 35.3669 35.3503L33.9156 35.3488C33.002 35.3473 32.4032 35.1133 32.0686 34.6118C31.8104 34.2251 31.7111 33.6792 31.7477 32.9591Z" fill="#FF8086"/>
</g>
<g id="Group_12">
<path id="Vector_11" fill-rule="evenodd" clip-rule="evenodd" d="M31.748 32.9592C31.829 28.585 33.4636 26.4873 34.8538 25.8085C35.06 25.9537 35.2892 26.073 35.5413 26.1616C34.3099 27.0927 33.0756 29.1736 33.0053 32.9592H31.748Z" fill="#FFC8C8"/>
</g>
<g id="Group_13">
<path id="Vector_12" fill-rule="evenodd" clip-rule="evenodd" d="M31.7487 32.9591H33.006C32.9693 33.6792 33.0686 34.2251 33.3268 34.6119C33.5376 34.9284 33.8554 35.1959 34.2908 35.3488H33.9165C33.0029 35.3473 32.404 35.1134 32.0695 34.6119C31.8114 34.2251 31.7121 33.6792 31.7487 32.9591Z" fill="#F76672"/>
</g>
<g id="Group_14">
<path id="Vector_13" fill-rule="evenodd" clip-rule="evenodd" d="M33.8767 42.3299C33.8767 40.0687 32.0847 38.2676 29.8742 38.2676C28.0761 38.2676 26.5545 39.4601 26.0488 41.1221C25.9449 41.463 25.8838 41.8254 25.8732 42.2015C25.8686 42.3483 25.9694 42.3299 26.1069 42.3299C28.6963 42.3299 31.2873 42.3284 33.8767 42.3299Z" fill="#FF8C5D"/>
</g>
<g id="Group_15">
<path id="Vector_14" fill-rule="evenodd" clip-rule="evenodd" d="M32.8743 42.3298H26.7818C26.8689 43.9719 28.1995 45.2776 29.828 45.2776C31.4566 45.2776 32.7872 43.9719 32.8743 42.3298Z" fill="#2A333E"/>
</g>
<g id="Group_16">
<path id="Vector_15" fill-rule="evenodd" clip-rule="evenodd" d="M48.345 41.6801L43.1035 42.8864C43.4365 44.3343 44.8802 45.2394 46.3269 44.9061C47.7751 44.5728 48.678 43.128 48.345 41.6801Z" fill="#2A333E"/>
</g>
<g id="Group_17">
<path id="Vector_16" fill-rule="evenodd" clip-rule="evenodd" d="M48.7372 40.2108C47.9962 39.1329 46.7099 38.5076 45.3656 38.6421C42.9946 39.1436 42.2231 40.5609 42.0688 42.3284C42.0718 42.5684 42.0978 42.81 42.1498 43.0515C42.1651 43.1188 42.2094 43.0913 42.2827 43.0745L43.1031 42.8864L48.3446 41.6801L48.7372 41.5899L49.2856 41.463C49.1802 41.0012 48.9908 40.5793 48.7372 40.2108Z" fill="#FFFAFA"/>
</g>
<g id="Group_18">
<path id="Vector_17" fill-rule="evenodd" clip-rule="evenodd" d="M45.3669 38.6359L43.2496 31.3094L42.2963 30.8828L41.23 31.3094C42.6308 35.1929 42.2398 37.9036 41.2941 40.4905C41.068 41.1052 40.8113 41.7137 40.5409 42.3298H42.0641L45.3669 38.6359Z" fill="#FF814E"/>
</g>
<g id="Group_19">
<path id="Vector_18" fill-rule="evenodd" clip-rule="evenodd" d="M38.8139 23.0946L36.3299 22.5656C36.0778 22.5885 35.3567 23.194 35.3567 23.5731L35.8853 26.2609C36.1053 26.3267 36.339 26.3634 36.5804 26.3634C37.9034 26.3634 38.9758 25.2886 38.9758 23.9645C38.9758 23.6572 38.9193 23.3636 38.8139 23.0946Z" fill="#FFECE4"/>
</g>
<g id="Group_20">
<path id="Vector_19" fill-rule="evenodd" clip-rule="evenodd" d="M39.6123 23.0946C39.6123 21.3853 38.2588 20.0016 36.5875 20.0016C34.9162 20.0016 33.5626 21.3853 33.5626 23.0946C33.5626 24.2229 34.021 25.2259 34.852 25.8084C35.1484 26.0179 35.4937 26.1723 35.8817 26.261V23.5731C35.8817 23.1939 36.0742 23.1175 36.3263 23.0945H38.8103H39.6123V23.0946Z" fill="#FF8C5D"/>
</g>
<g id="Group_21">
<path id="Vector_20" fill-rule="evenodd" clip-rule="evenodd" d="M38.1724 20.4587C37.7125 20.1682 37.1702 20.0016 36.5897 20.0016C34.9184 20.0016 33.5648 21.3853 33.5648 23.0946C33.5648 24.2229 34.0232 25.2259 34.8542 25.8084C35.0651 25.9567 35.2988 26.0775 35.5555 26.1662C34.9414 25.5439 34.6083 24.651 34.6083 23.6664C34.6083 21.8806 36.0245 20.4327 37.7706 20.4327C37.9066 20.4327 38.041 20.4403 38.1724 20.4587Z" fill="#FF5A17"/>
</g>
<g id="Group_22">
<path id="Vector_21" fill-rule="evenodd" clip-rule="evenodd" d="M38.3867 38.717H36.0982V40.1588C36.0982 40.4677 36.2662 40.4906 36.5137 40.4906H39.7983C39.864 39.0442 38.9886 38.717 38.3867 38.717Z" fill="#635448"/>
</g>
<g id="Group_23">
<path id="Vector_22" fill-rule="evenodd" clip-rule="evenodd" d="M41.2981 40.4906C42.2438 37.9037 42.6349 35.1929 41.234 31.3094H42.0192C42.0223 31.3094 42.0254 31.3094 42.0284 31.3094H42.311C43.7119 35.1929 43.3223 37.9036 42.3752 40.4906C42.1506 41.1052 41.8939 41.7137 41.622 42.3299H41.072H40.545C40.8154 41.7137 41.072 41.1052 41.2981 40.4906Z" fill="#FF5A17"/>
</g>
<g id="Group_24">
<path id="Vector_23" fill-rule="evenodd" clip-rule="evenodd" d="M42.0701 42.3284L45.3669 38.6421C45.7076 38.6085 46.0452 38.6222 46.3706 38.6819L43.2022 42.2244C43.2052 42.4307 43.2251 42.6402 43.2648 42.8497L43.1044 42.8863L42.284 43.0744C42.2107 43.0912 42.1663 43.1188 42.1511 43.0515C42.0992 42.81 42.0732 42.5684 42.0701 42.3284Z" fill="#FFC8C8"/>
</g>
<g id="Group_25">
<path id="Vector_24" fill-rule="evenodd" clip-rule="evenodd" d="M26.6665 36.7876H36.0969V37.6178H28.3485C27.7176 37.6178 27.4181 37.8899 27.1721 38.4419C26.9598 38.9205 26.9552 39.0764 26.859 39.6543C26.4969 40.0748 26.2188 40.5732 26.0523 41.1221C25.6689 38.9082 26.1135 37.7508 26.6665 36.7876Z" fill="#FF5A17"/>
</g>
<g id="Group_26">
<path id="Vector_25" fill-rule="evenodd" clip-rule="evenodd" d="M26.858 39.6542C27.5913 38.8025 28.6714 38.2675 29.8767 38.2675C30.1792 38.2675 30.4725 38.3011 30.7551 38.3638C28.9509 38.772 27.689 40.3651 27.634 42.2014C27.631 42.3023 27.6768 42.3252 27.7501 42.3298H26.7801H26.1094C25.9719 42.3298 25.871 42.3482 25.8756 42.2014C25.8863 41.8253 25.9474 41.4629 26.0513 41.1219C26.0543 41.1112 26.0574 41.1021 26.0605 41.0929C26.0605 41.0929 26.0605 41.0929 26.0605 41.0914C26.2286 40.5547 26.502 40.067 26.858 39.6542Z" fill="#FF5A17"/>
</g>
<g id="Group_27">
<path id="Vector_26" fill-rule="evenodd" clip-rule="evenodd" d="M43.2645 42.8496L48.3457 41.6801C48.4022 41.9201 48.4221 42.1617 48.4129 42.3971L44.3798 43.3252L44.2209 43.3619C44.3707 44.0193 44.751 44.5651 45.2567 44.9336C44.2255 44.7516 43.3532 43.9719 43.1042 42.8864L43.2645 42.8496Z" fill="#635448"/>
</g>
<g id="Group_28">
<path id="Vector_27" fill-rule="evenodd" clip-rule="evenodd" d="M27.7507 42.3299H32.873C32.8563 42.6509 32.7905 42.9598 32.6851 43.2487H29.1164H28.1464C28.1846 43.9673 28.4595 44.6202 28.8934 45.1293C27.7156 44.7425 26.8494 43.6432 26.7807 42.3298H27.7507V42.3299Z" fill="#635448"/>
</g>
<g id="Group_29">
<path id="Vector_28" fill-rule="evenodd" clip-rule="evenodd" d="M26.0063 36.1271V34.6119H28.0764V36.1271C28.0764 36.491 28.3743 36.7875 28.7363 36.7875H26.6663C26.3042 36.7876 26.0063 36.491 26.0063 36.1271Z" fill="#2A333E"/>
</g>
<g id="Group_30">
<path id="Vector_29" fill-rule="evenodd" clip-rule="evenodd" d="M38.9609 23.7076H36.9199C36.6679 23.7305 36.4754 23.8085 36.4754 24.1877V26.3603C36.2706 26.3511 36.0721 26.3175 35.8826 26.2609V23.5731C35.8826 23.1939 36.0751 23.1174 36.3272 23.0945H38.8112C38.8861 23.2872 38.938 23.4935 38.9609 23.7076Z" fill="#FFDDCE"/>
</g>
<g id="Group_31">
<path id="Vector_30" fill-rule="evenodd" clip-rule="evenodd" d="M43.6952 29.0023L40.8369 29.9472C40.6963 30.0725 40.8552 31.3507 40.9499 31.3094H43.2537H44.2727V29.2057C44.2727 28.7913 44.0573 28.883 43.6952 29.0023Z" fill="#FFE07D"/>
</g>
<g id="Group_32">
<path id="Vector_31" fill-rule="evenodd" clip-rule="evenodd" d="M39.5069 31.3095H39.7467H40.9521C41.7282 31.3095 41.7511 30.0222 40.839 29.9472L39.5069 29.8402L39.1494 30.597L39.5069 31.3095Z" fill="#FFECE4"/>
</g>
<g id="Group_33">
<path id="Vector_32" fill-rule="evenodd" clip-rule="evenodd" d="M36.9203 28.6568L36.4422 28.2455C35.2445 27.2135 33.7305 28.9549 35.3315 29.9946L36.6789 30.8691L37.3573 31.3095H39.5037V29.8402L38.17 29.7316L36.9203 28.6568Z" fill="#FF8086"/>
</g>
<g id="Group_34">
<path id="Vector_33" fill-rule="evenodd" clip-rule="evenodd" d="M39.5065 31.3094V30.597H39.7922H39.9465H40.1878H41.3932C41.439 30.597 41.4818 30.5939 41.523 30.5847C41.5673 30.9394 41.3672 31.3094 40.9516 31.3094H39.7463H39.5065Z" fill="#FFDDCE"/>
</g>
<g id="Group_35">
<path id="Vector_34" fill-rule="evenodd" clip-rule="evenodd" d="M35.3315 29.9945C34.363 29.3646 34.5341 28.4794 35.0855 28.1063C35.0412 28.4885 35.223 28.9273 35.773 29.2836L36.8225 29.964L37.1189 30.1582L37.7972 30.597H39.5037V31.3094H37.3572L36.6789 30.8691L35.3315 29.9945Z" fill="#F76672"/>
</g>
<g id="Group_36">
<path id="Vector_35" fill-rule="evenodd" clip-rule="evenodd" d="M40.8368 29.9472L41.9871 29.568C42.3721 29.9808 42.5585 30.785 42.311 31.3094H41.234H40.9498C41.3654 31.3094 41.5655 30.9394 41.5212 30.5847C41.4815 30.2774 41.2599 29.9823 40.8368 29.9472Z" fill="#FFC269"/>
</g>
</g>
</g>
<defs>
<filter id="filter0_d_7_6920" x="0.584472" y="-0.232965" width="75.4852" height="75.4851" filterUnits="userSpaceOnUse" color-interpolation-filters="sRGB">
<feFlood flood-opacity="0" result="BackgroundImageFix"/>
<feColorMatrix in="SourceAlpha" type="matrix" values="0 0 0 0 0 0 0 0 0 0 0 0 0 0 0 0 0 0 127 0" result="hardAlpha"/>
<feOffset dx="2.435" dy="4.87001"/>
<feGaussianBlur stdDeviation="12.175"/>
<feColorMatrix type="matrix" values="0 0 0 0 1 0 0 0 0 0.466667 0 0 0 0 0.491863 0 0 0 0.6 0"/>
<feBlend mode="normal" in2="BackgroundImageFix" result="effect1_dropShadow_7_6920"/>
<feBlend mode="normal" in="SourceGraphic" in2="effect1_dropShadow_7_6920" result="shape"/>
</filter>
<clipPath id="clip0_7_6920">
<rect width="26.7851" height="26.7851" fill="white" transform="matrix(-1 0 0 1 49.2847 19.2471)"/>
</clipPath>
</defs>
</svg>
